<svg width="153" height="48" viewBox="0 0 153 48" fill="none" xmlns="http://www.w3.org/2000/svg">
<g filter="url(#filter0_dd)">
<path d="M75.005 18.5486C75.0049 18.2125 75.1358 17.8898 75.3697 17.6494C75.6037 17.409 75.922 17.2701 76.2568 17.2623H83.39C88.4469 17.2623 91.7751 19.9645 91.7751 24.3918V24.4516C91.7751 29.2977 87.7415 31.8105 82.9727 31.8105H77.5384V38.611C77.5539 38.7874 77.5328 38.9651 77.4762 39.1329C77.4196 39.3006 77.3289 39.4547 77.2097 39.5854C77.0906 39.716 76.9457 39.8204 76.7842 39.8918C76.6227 39.9631 76.4481 40 76.2717 40C76.0952 40 75.9207 39.9631 75.7592 39.8918C75.5977 39.8204 75.4527 39.716 75.3336 39.5854C75.2145 39.4547 75.1237 39.3006 75.0671 39.1329C75.0106 38.9651 74.9894 38.7874 75.005 38.611V18.5486ZM83.0721 29.5171C86.7778 29.5171 89.2119 27.5228 89.2119 24.5314V24.4716C89.2119 21.2608 86.8175 19.5956 83.2509 19.5956H77.588V29.4772L83.0721 29.5171Z" fill="#283645"/>
<path d="M96.5935 18.389C96.5779 18.2126 96.5991 18.0349 96.6556 17.8671C96.7122 17.6994 96.803 17.5452 96.9221 17.4146C97.0412 17.2839 97.1862 17.1796 97.3477 17.1082C97.5092 17.0369 97.6837 17 97.8602 17C98.0366 17 98.2112 17.0369 98.3727 17.1082C98.5342 17.1796 98.6791 17.2839 98.7982 17.4146C98.9174 17.5452 99.0081 17.6994 99.0647 17.8671C99.1213 18.0349 99.1425 18.2126 99.1269 18.389V38.611C99.1425 38.7874 99.1213 38.9651 99.0647 39.1329C99.0081 39.3006 98.9174 39.4548 98.7982 39.5854C98.6791 39.7161 98.5342 39.8204 98.3727 39.8918C98.2112 39.9631 98.0366 40 97.8602 40C97.6837 40 97.5092 39.9631 97.3477 39.8918C97.1862 39.8204 97.0412 39.7161 96.9221 39.5854C96.803 39.4548 96.7122 39.3006 96.6556 39.1329C96.5991 38.9651 96.5779 38.7874 96.5935 38.611V18.389Z" fill="#283645"/>
<path d="M105.674 18.419C105.682 18.0891 105.816 17.775 106.05 17.5426C106.283 17.3102 106.597 17.1776 106.926 17.1725H107.273C107.532 17.1778 107.784 17.2482 108.008 17.3771C108.232 17.5061 108.42 17.6894 108.555 17.9104L122.156 35.3104V18.3591C122.156 18.0312 122.286 17.7167 122.517 17.4848C122.748 17.2529 123.061 17.1227 123.388 17.1227C123.715 17.1227 124.028 17.2529 124.259 17.4848C124.49 17.7167 124.62 18.0312 124.62 18.3591V38.6508C124.625 38.8051 124.599 38.9589 124.544 39.1028C124.488 39.2467 124.403 39.3777 124.296 39.4878C124.188 39.5979 124.059 39.6848 123.916 39.7432C123.774 39.8016 123.621 39.8303 123.467 39.8275H123.338C123.074 39.8092 122.818 39.7294 122.591 39.5944C122.363 39.4593 122.17 39.2728 122.027 39.0497L108.118 21.2408V38.6508C108.116 38.9722 107.991 39.2805 107.769 39.5124C107.547 39.7442 107.246 39.882 106.926 39.8973C106.601 39.892 106.291 39.7581 106.064 39.5246C105.837 39.2911 105.711 38.9771 105.714 38.6508V18.419H105.674Z" fill="#283645"/>
<path d="M130.938 18.389C130.923 18.2126 130.944 18.0349 131.001 17.8671C131.057 17.6994 131.148 17.5452 131.267 17.4146C131.386 17.2839 131.531 17.1796 131.693 17.1082C131.854 17.0369 132.029 17 132.205 17C132.382 17 132.556 17.0369 132.718 17.1082C132.879 17.1796 133.024 17.2839 133.143 17.4146C133.262 17.5452 133.353 17.6994 133.41 17.8671C133.466 18.0349 133.487 18.2126 133.472 18.389V30.6837L146.228 17.5514C146.49 17.2797 146.845 17.1191 147.222 17.1027C147.547 17.1155 147.855 17.2528 148.082 17.4865C148.309 17.7202 148.439 18.0325 148.444 18.3591C148.437 18.529 148.396 18.6957 148.325 18.8498C148.253 19.0038 148.152 19.1421 148.026 19.2565L140.078 27.1539L148.652 37.6836C148.876 37.9441 149 38.2768 149 38.6209C148.996 38.7933 148.958 38.9633 148.889 39.121C148.819 39.2786 148.719 39.4209 148.594 39.5395C148.47 39.6582 148.323 39.7509 148.162 39.8123C148.002 39.8737 147.831 39.9026 147.659 39.8973C147.459 39.8891 147.264 39.8322 147.091 39.7314C146.918 39.6306 146.772 39.4891 146.665 39.3189L138.3 28.859L133.472 33.7051V38.591C133.472 38.7573 133.439 38.922 133.376 39.0756C133.312 39.2293 133.219 39.3689 133.102 39.4865C132.985 39.6041 132.846 39.6973 132.693 39.761C132.54 39.8246 132.376 39.8574 132.21 39.8574C132.044 39.8574 131.88 39.8246 131.727 39.761C131.574 39.6973 131.435 39.6041 131.318 39.4865C131.201 39.3689 131.108 39.2293 131.044 39.0756C130.981 38.922 130.948 38.7573 130.948 38.591V18.389H130.938Z" fill="#283645"/>
<path fill-rule="evenodd" clip-rule="evenodd" d="M57.8917 6.58616L62.9302 27.7312C63.0013 27.9491 63.0184 28.1815 62.98 28.4078C62.9417 28.6341 62.849 28.8472 62.7102 29.0284C62.5715 29.2096 62.3909 29.3532 62.1845 29.4465C61.978 29.5398 61.7522 29.58 61.5268 29.5635H57.5201C56.8298 35.3747 51.9494 39.8784 46.0315 39.8784C40.1136 39.8784 35.2332 35.3747 34.543 29.5635H32.5778C31.8869 35.442 26.9527 40 20.9685 40C14.9742 40 10.0335 35.4266 9.35571 29.5337H5.45014C5.22961 29.5445 5.00974 29.5014 4.80891 29.4082C4.60808 29.315 4.43212 29.1743 4.29571 28.9979C4.1593 28.8214 4.06642 28.6144 4.0248 28.3941C3.98319 28.1737 3.99406 27.9464 4.05651 27.7312L9.10477 6.58616C9.45562 4.25872 11.6387 0 17.4861 0C17.8738 0 18.2456 0.156518 18.5197 0.435122C18.7939 0.713727 18.9479 1.0916 18.9479 1.4856C18.9479 1.87961 18.7939 2.25748 18.5197 2.53608C18.2456 2.81468 17.8738 2.9712 17.4861 2.9712C12.7789 2.9712 12.048 6.6654 11.9895 7.07146L7.3408 26.6022H9.37467C10.1209 20.7847 15.0272 16.2918 20.9685 16.2918C26.9066 16.2918 31.8107 20.7798 32.5611 26.5926L34.5587 26.6017C35.3043 20.8518 40.1567 16.4134 46.0315 16.4134C51.9178 16.4134 56.7776 20.8691 57.5086 26.6353V26.5824H59.6459L55.007 7.07146C54.9387 6.6654 54.237 2.9712 49.5104 2.9712C49.1227 2.9712 48.7509 2.81468 48.4767 2.53608C48.2026 2.25748 48.0485 1.87961 48.0485 1.4856C48.0485 1.0916 48.2026 0.713727 48.4767 0.435122C48.7509 0.156518 49.1227 0 49.5104 0C55.3578 0 57.5408 4.25872 57.8917 6.58616ZM29.6722 29.5635C29.7448 29.1018 29.7825 28.6283 29.7825 28.1459C29.7825 27.6164 29.7371 27.0977 29.65 26.5935C28.9252 22.3982 25.3141 19.2097 20.9685 19.2097C16.6203 19.2097 13.0075 22.402 12.2857 26.601C12.1994 27.1028 12.1545 27.619 12.1545 28.1459C12.1545 28.6205 12.191 29.0864 12.2612 29.541C12.9219 33.8136 16.5687 37.0821 20.9685 37.0821C25.3605 37.0821 29.0023 33.8251 29.6722 29.5635ZM54.6138 29.5635C54.6874 29.102 54.7256 28.6285 54.7256 28.1459C54.7256 23.2777 50.8331 19.3313 46.0315 19.3313C41.2299 19.3313 37.3374 23.2777 37.3374 28.1459C37.3374 28.6285 37.3756 29.102 37.4492 29.5635C38.118 33.7577 41.7058 36.9605 46.0315 36.9605C50.3572 36.9605 53.945 33.7577 54.6138 29.5635Z" fill="#D22856"/>
</g>
<defs>
<filter id="filter0_dd" x="0" y="0" width="153" height="48" filterUnits="userSpaceOnUse" color-interpolation-filters="sRGB">
<feFlood flood-opacity="0" result="BackgroundImageFix"/>
<feColorMatrix in="SourceAlpha" type="matrix" values="0 0 0 0 0 0 0 0 0 0 0 0 0 0 0 0 0 0 127 0"/>
<feOffset dy="4"/>
<feGaussianBlur stdDeviation="2"/>
<feColorMatrix type="matrix" values="0 0 0 0 0 0 0 0 0 0 0 0 0 0 0 0 0 0 0.25 0"/>
<feBlend mode="normal" in2="BackgroundImageFix" result="effect1_dropShadow"/>
<feColorMatrix in="SourceAlpha" type="matrix" values="0 0 0 0 0 0 0 0 0 0 0 0 0 0 0 0 0 0 127 0"/>
<feOffset dy="4"/>
<feGaussianBlur stdDeviation="2"/>
<feColorMatrix type="matrix" values="0 0 0 0 0 0 0 0 0 0 0 0 0 0 0 0 0 0 0.25 0"/>
<feBlend mode="normal" in2="effect1_dropShadow" result="effect2_dropShadow"/>
<feBlend mode="normal" in="SourceGraphic" in2="effect2_dropShadow" result="shape"/>
</filter>
</defs>
</svg>
